<svg id="app.svg" xmlns="http://www.w3.org/2000/svg" width="158" height="158" viewBox="0 0 158 158">
  <title>App</title>
  <path class="cls-1" d="M191,117.444H154.556a16.017,16.017,0,0,1-16-16V65a16.018,16.018,0,0,1,16-16H191a16.018,16.018,0,0,1,16,16v36.444A16.018,16.018,0,0,1,191,117.444ZM154.556,57a8.009,8.009,0,0,0-8,8v36.444a8.009,8.009,0,0,0,8,8H191a8.009,8.009,0,0,0,8-8V65a8.009,8.009,0,0,0-8-8H154.556Zm-53.112,60.444H65a16.018,16.018,0,0,1-16-16V65A16.018,16.018,0,0,1,65,49h36.444a16.018,16.018,0,0,1,16,16v36.444A16.017,16.017,0,0,1,101.444,117.444ZM65,57a8.009,8.009,0,0,0-8,8v36.444a8.009,8.009,0,0,0,8,8h36.444a8.009,8.009,0,0,0,8-8V65a8.009,8.009,0,0,0-8-8H65Zm36.444,150H65a16.018,16.018,0,0,1-16-16V154.556a16.018,16.018,0,0,1,16-16h36.444a16.017,16.017,0,0,1,16,16V191A16.018,16.018,0,0,1,101.444,207ZM65,146.556a8.009,8.009,0,0,0-8,8V191a8.009,8.009,0,0,0,8,8h36.444a8.009,8.009,0,0,0,8-8V154.556a8.009,8.009,0,0,0-8-8H65ZM191,207H154.556a16.018,16.018,0,0,1-16-16V154.556a16.017,16.017,0,0,1,16-16H191a16.018,16.018,0,0,1,16,16V191A16.019,16.019,0,0,1,191,207Zm-36.444-60.444a8.008,8.008,0,0,0-8,8V191a8.009,8.009,0,0,0,8,8H191a8.009,8.009,0,0,0,8-8V154.556a8.009,8.009,0,0,0-8-8H154.556Z" transform="translate(-49 -49)"/>
</svg>
