<svg viewBox="0 0 32 32" height="32px" width="32px" xmlns="http://www.w3.org/2000/svg">
  <title>Bell</title>
  <path d="M15.981 32c-3.406 0-4.659-2.388-4.944-4.146h-6.836c-1.435-0.002-2.598-1.166-2.598-2.601 0-0.482 0.131-0.933 0.359-1.32l0.033-0.051 4.64-6.511c0.075-0.138 0.12-0.301 0.12-0.476v-9.215c0.006-0.077 0.375-7.681 9.226-7.681s9.22 7.604 9.223 7.68v9.215c0 0.174 0.045 0.338 0.123 0.481l4.679 6.568c0.222 0.375 0.353 0.826 0.353 1.308 0 1.435-1.163 2.599-2.597 2.601h-6.836c-0.285 1.758-1.538 4.146-4.944 4.146zM3.321 24.778c-0.075 0.137-0.12 0.301-0.12 0.475 0 0.552 0.447 1 1 1.001h8.366v0.8c0.003 0.34 0.125 3.346 3.414 3.346s3.411-3.006 3.414-3.349l0.007-0.793 0.792-0.004h7.568c0.552-0.001 1-0.449 1-1.001 0-0.174-0.044-0.338-0.122-0.48l-4.679-6.569c-0.221-0.375-0.352-0.826-0.352-1.307v-9.17c-0.019-0.37-0.424-6.127-7.626-6.127-7.234 0-7.609 5.737-7.626 6.125v9.171c-0 0.482-0.131 0.933-0.358 1.32l-0.033 0.051z" />
  </svg>
