<svg xmlns="http://www.w3.org/2000/svg" width="136" height="112" viewBox="0 0 136 112">
  <title>Camera</title>
  <path d="M184,184H72a12.014,12.014,0,0,1-12-12V100A12.014,12.014,0,0,1,72,88H91.056a3.978,3.978,0,0,0,3.578-2.211l3.578-7.156A11.935,11.935,0,0,1,108.944,72h38.112a11.935,11.935,0,0,1,10.733,6.634l3.578,7.155A3.977,3.977,0,0,0,164.944,88H184a12.014,12.014,0,0,1,12,12v72A12.013,12.013,0,0,1,184,184ZM72,96a4,4,0,0,0-4,4v72a4,4,0,0,0,4,4H184a4,4,0,0,0,4-4V100a4,4,0,0,0-4-4H164.944a11.935,11.935,0,0,1-10.733-6.634l-3.578-7.155A3.977,3.977,0,0,0,147.056,80H108.944a3.977,3.977,0,0,0-3.577,2.211l-3.578,7.156A11.935,11.935,0,0,1,91.056,96H72Zm56,68.66a32,32,0,1,1,32-32A32.037,32.037,0,0,1,128,164.66Zm0-56a24,24,0,1,0,24,24A24.027,24.027,0,0,0,128,108.66Z" transform="translate(-60 -72)"/>
</svg>
