<svg xmlns="http://www.w3.org/2000/svg" width="111.719" height="111.719" viewBox="0 0 111.719 111.719">
  <title>Close</title>
  <path d="M182.693,81.775l-8.469-8.469a3.992,3.992,0,0,0-5.639,0L128,113.892,87.413,73.307a3.991,3.991,0,0,0-5.639,0l-8.469,8.469a3.991,3.991,0,0,0,0,5.639L113.892,128,73.306,168.586a3.992,3.992,0,0,0,0,5.639l8.469,8.469a3.993,3.993,0,0,0,5.639,0L128,142.107l40.586,40.587a3.992,3.992,0,0,0,5.639,0l8.469-8.469a3.993,3.993,0,0,0,0-5.639L142.107,128l40.586-40.586A3.993,3.993,0,0,0,182.693,81.775Z" transform="translate(-72.156 -72.156)"/>
</svg>
