<svg xmlns="http://www.w3.org/2000/svg" width="248" height="248" viewBox="0 0 248 248">
  <title>Cog</title>
  <path d="M133.92,224H122.08a12.333,12.333,0,0,1-11.761-8.551l-5.417-16.7a73.944,73.944,0,0,1-10.592-4.388l-15.647,7.983A12.337,12.337,0,0,1,64.3,200.07L55.93,191.7a12.333,12.333,0,0,1-2.271-14.36l7.982-15.648A73.976,73.976,0,0,1,57.254,151.1l-16.7-5.417A12.334,12.334,0,0,1,32,133.92V122.08a12.333,12.333,0,0,1,8.55-11.761l16.7-5.417A74.011,74.011,0,0,1,61.642,94.31L53.66,78.664A12.333,12.333,0,0,1,55.93,64.3L64.3,55.93a12.334,12.334,0,0,1,14.361-2.271L94.3,61.639a68.325,68.325,0,0,1,10.6-4.39l5.416-16.7A12.331,12.331,0,0,1,122.08,32h11.84a12.333,12.333,0,0,1,11.761,8.55l5.417,16.7a74,74,0,0,1,10.592,4.387l15.646-7.982A12.331,12.331,0,0,1,191.7,55.93L200.07,64.3a12.334,12.334,0,0,1,2.271,14.361L194.358,94.31a74.015,74.015,0,0,1,4.388,10.592l16.7,5.418A12.331,12.331,0,0,1,224,122.08v11.84a12.335,12.335,0,0,1-8.549,11.761l-16.7,5.417a74.038,74.038,0,0,1-4.388,10.591l7.982,15.648a12.332,12.332,0,0,1-2.27,14.36l-8.372,8.372a12.338,12.338,0,0,1-14.362,2.272l-15.646-7.983a73.954,73.954,0,0,1-10.592,4.388l-5.418,16.7A12.332,12.332,0,0,1,133.92,224ZM94.4,185.33l1.853,1.012A65.96,65.96,0,0,0,109.2,191.7l2.024,0.6,6.707,20.682A4.353,4.353,0,0,0,122.08,216h11.84a4.352,4.352,0,0,0,4.15-3.018l6.708-20.683,2.024-.6a65.953,65.953,0,0,0,12.941-5.361l1.854-1.012,19.375,9.884a4.35,4.35,0,0,0,5.069-.8l8.372-8.371a4.354,4.354,0,0,0,.8-5.069L185.331,161.6l1.011-1.853A65.915,65.915,0,0,0,191.7,146.8l0.6-2.025,20.683-6.706A4.354,4.354,0,0,0,216,133.92V122.08a4.352,4.352,0,0,0-3.018-4.15L192.3,111.222l-0.6-2.024a65.916,65.916,0,0,0-5.361-12.942L185.331,94.4l9.883-19.376a4.354,4.354,0,0,0-.8-5.069l-8.373-8.372a4.349,4.349,0,0,0-5.068-.8L161.6,70.669l-1.853-1.012A65.943,65.943,0,0,0,146.8,64.3l-2.024-.6-6.707-20.683A4.354,4.354,0,0,0,133.92,40H122.08a4.352,4.352,0,0,0-4.15,3.018L111.222,63.7l-2.024.6a62.451,62.451,0,0,0-12.942,5.361L94.4,70.669,75.028,60.786a4.354,4.354,0,0,0-5.069.8L61.587,69.96a4.353,4.353,0,0,0-.8,5.069L70.669,94.4l-1.012,1.853A65.933,65.933,0,0,0,64.3,109.2l-0.6,2.024-20.683,6.707A4.354,4.354,0,0,0,40,122.08v11.84a4.354,4.354,0,0,0,3.019,4.151L63.7,144.777l0.6,2.025a65.9,65.9,0,0,0,5.361,12.942l1.011,1.853-9.884,19.375a4.354,4.354,0,0,0,.8,5.069l8.372,8.372a4.354,4.354,0,0,0,5.068.8ZM128,168a40,40,0,1,1,40-40A40.045,40.045,0,0,1,128,168Zm0-72a32,32,0,1,0,32,32A32.036,32.036,0,0,0,128,96Z" transform="translate(-4 -4)"/>
</svg>
