<svg xmlns="http://www.w3.org/2000/svg" width="160" height="159.938" viewBox="0 0 160 159.938">
  <title>Crop</title>
  <path d="M74.955,167.991H65.544V101.507c0-9.5,3.271-18.335,8.973-24.239A24.042,24.042,0,0,1,92.8,69.688L208,69.68v10l-115.316.008-0.061,0a15.116,15.116,0,0,0-11.539,4.744c-3.9,4.034-6.131,10.259-6.131,17.079v66.484Zm90.734,18.33H48v-10H165.689c8.323,0,15.355-12.025,15.355-26.257V88.009h9.411v62.057C190.455,170.4,179.576,186.321,165.689,186.321ZM74.955,207.982H65.544v-13.33h9.411v13.33Zm115.5-146.634h-9.411V48.018h9.411v13.33Z" transform="translate(-48 -48.031)"/>
</svg>
