<svg xmlns="http://www.w3.org/2000/svg" width="160" height="160" viewBox="0 0 160 160">
  <title>Data</title>
  <path d="M204.147,203.792a12.9,12.9,0,0,1-9.5,4.208H61.344C53.986,208,48,201.667,48,193.882V100.106L96.86,50.694V50.353H97.2L99.524,48h93.061c7.854,0,14.338,6.76,14.453,15.069l0.947,130.6A14.462,14.462,0,0,1,204.147,203.792ZM96.86,63.714l-33.321,33.7H96.86v-33.7Zm101.285-.5a5.747,5.747,0,0,0-5.559-5.8h-86.83V85.647h80.059v9.412H105.755v11.765H56.9v87.058a4.587,4.587,0,0,0,4.448,4.706h133.3a4.3,4.3,0,0,0,3.168-1.4,4.819,4.819,0,0,0,1.279-3.372ZM70.173,160.941H185.814v9.412H70.173v-9.412Zm0-37.647H185.814v9.412H70.173v-9.412Z" transform="translate(-48 -48)"/>
</svg>
