<svg xmlns="http://www.w3.org/2000/svg" width="110" height="104" viewBox="0 0 110 104">
  <title>Filter</title>
  <path d="M117.5,180a7.509,7.509,0,0,1-7.483-7.513V123.726L75.187,88.813A7.508,7.508,0,0,1,80.482,76h95.035a7.508,7.508,0,0,1,5.3,12.813l-34.831,34.913v38.245a7.468,7.468,0,0,1-4.137,6.712L120.856,179.2A7.475,7.475,0,0,1,117.5,180ZM81.672,84l34.135,34.214A7.464,7.464,0,0,1,118,123.521v48.167l20-10.023V123.521a7.462,7.462,0,0,1,2.194-5.308L174.327,84H81.672Z" transform="translate(-73 -76)"/>
</svg>
