<svg xmlns="http://www.w3.org/2000/svg" width="104" height="163" viewBox="0 0 104 163">
  <title>Location</title>
  <path d="M128,210l-3.2-4.275C122.808,203.061,76,140.053,76,99.108,76,75.8,87.573,63.179,97.281,56.694A59.369,59.369,0,0,1,128,47a59.374,59.374,0,0,1,30.719,9.692C168.427,63.179,180,75.8,180,99.108c0,40.945-46.808,103.953-48.8,106.615Zm0-154.979a51.642,51.642,0,0,0-26.281,8.345C89.961,71.218,84,83.244,84,99.108c0,32.37,33.378,82.294,44,97.358,10.62-15.065,44-65.006,44-97.358,0-15.864-5.961-27.89-17.719-35.744A51.642,51.642,0,0,0,128,55.019Zm0,76.153a32.065,32.065,0,1,1,32-32.064A32.068,32.068,0,0,1,128,131.172Zm0-56.113a24.048,24.048,0,1,0,24,24.049A24.051,24.051,0,0,0,128,75.059Z" transform="translate(-76 -47)"/>
</svg>
