<svg xmlns="http://www.w3.org/2000/svg" width="248" height="248" viewBox="0 0 248 248">
  <title>Lock</title>
  <path d="M188.842,200H67.158A11.171,11.171,0,0,1,56,188.842V138.737a11.171,11.171,0,0,1,11.158-11.158h6.737V99.369C73.895,98.935,74.513,56,128,56s54.1,42.935,54.1,43.369v28.21h6.737A11.171,11.171,0,0,1,200,138.737v50.105A11.171,11.171,0,0,1,188.842,200ZM67.158,135.579A3.162,3.162,0,0,0,64,138.737v50.105A3.162,3.162,0,0,0,67.158,192H188.842A3.162,3.162,0,0,0,192,188.842V138.737a3.162,3.162,0,0,0-3.158-3.158H174.105V99.369C174.1,97.938,173.331,64,128,64S81.9,97.938,81.895,99.383v36.2H67.158Zm93.473,0H95.369V99.369c0-.219.373-21.9,32.631-21.9s32.631,21.676,32.631,21.9v36.21Zm-57.262-8h49.262V99.369c-0.015-.518-0.654-13.9-24.631-13.9-24.35,0-24.631,13.756-24.631,13.9v28.21Z" transform="translate(-4 -4)"/>
</svg>
