<svg xmlns="http://www.w3.org/2000/svg" width="168" height="128" viewBox="0 0 168 128">
  <title>Message</title>
  <path d="M128,132m64-68H64A20.02,20.02,0,0,0,44,84v88a20.02,20.02,0,0,0,20,20H192a20.02,20.02,0,0,0,20-20V84A20.02,20.02,0,0,0,192,64Zm-2.52,8L128,126.65,66.52,72H189.48ZM52,84a12,12,0,0,1,5.01-9.75l44.52,39.57L52.84,176.4A11.92,11.92,0,0,1,52,172V84ZM192,184H64a11.844,11.844,0,0,1-5.77-1.48l49.29-63.38L128,137.35l20.33-18.07,46.5,64.38A12.046,12.046,0,0,1,192,184Zm12-12a11.938,11.938,0,0,1-2.47,7.29l-47.2-65.35,44.66-39.69A12,12,0,0,1,204,84v88Z" transform="translate(-44 -64)"/>
</svg>
