<svg xmlns="http://www.w3.org/2000/svg" width="160.063" height="160.094" viewBox="0 0 160.063 160.094">
  <title>Move</title>
  <path d="M127.893,208.029a11.78,11.78,0,0,1-8.356-3.456L98.015,183.046a11.821,11.821,0,0,1,8.358-20.179h43.041a11.821,11.821,0,0,1,8.357,20.179L136.25,204.572A11.778,11.778,0,0,1,127.893,208.029Zm-21.52-36.268a2.927,2.927,0,0,0-2.069,5l21.52,21.526a2.93,2.93,0,0,0,4.139,0l21.52-21.525a2.927,2.927,0,0,0-2.069-5H106.373ZM149.414,93.1H106.373a11.822,11.822,0,0,1-8.358-20.181L119.536,51.4a11.831,11.831,0,0,1,16.714,0l21.521,21.525A11.822,11.822,0,0,1,149.414,93.1ZM104.3,79.213a2.927,2.927,0,0,0,2.069,5h43.041a2.927,2.927,0,0,0,2.069-5L129.962,57.688a2.929,2.929,0,0,0-4.138,0Zm70.355,82.149a12,12,0,0,1-4.6-.929,11.639,11.639,0,0,1-7.3-10.922V106.459A11.818,11.818,0,0,1,182.941,98.1l21.521,21.526a11.839,11.839,0,0,1,0,16.718l-21.521,21.525A11.654,11.654,0,0,1,174.659,161.362Zm-0.014-57.846a3.149,3.149,0,0,0-1.18.239,2.83,2.83,0,0,0-1.807,2.7v43.052a2.926,2.926,0,0,0,5,2.07l21.52-21.526a2.928,2.928,0,0,0,0-4.139l-21.52-21.526A2.77,2.77,0,0,0,174.645,103.516ZM81.128,161.362a11.654,11.654,0,0,1-8.283-3.493h0l-21.52-21.525a11.837,11.837,0,0,1,0-16.718L72.845,98.1a11.819,11.819,0,0,1,20.176,8.359v43.052a11.64,11.64,0,0,1-7.3,10.922A12,12,0,0,1,81.128,161.362Zm0.013-57.846a2.771,2.771,0,0,0-2.008.874l-21.52,21.526a2.93,2.93,0,0,0,0,4.139l21.52,21.526a2.926,2.926,0,0,0,5-2.07V106.459a2.83,2.83,0,0,0-1.807-2.7A3.153,3.153,0,0,0,81.141,103.516Zm46.752,48.58A24.111,24.111,0,1,1,152,127.985,24.136,24.136,0,0,1,127.893,152.1Zm0-39.328a15.217,15.217,0,1,0,15.214,15.217A15.233,15.233,0,0,0,127.893,112.768Z" transform="translate(-47.875 -47.938)"/>
</svg>
