<svg xmlns="http://www.w3.org/2000/svg" width="178.062" height="190.188" viewBox="0 0 178.062 190.188">
  <title>Mute</title>
  <path d="M39.969,94.477v66.017H80.931l0.66,0.577,50.449-55.882V50.256L80.931,94.477H39.969Zm155.773-11.93-16.388,18.14a72.747,72.747,0,0,1,5.03,26.791c0,17.856-6.175,33.943-15.4,43.641l11.588,20.752c15.68-13.73,26.045-37.442,26.045-64.393A94.925,94.925,0,0,0,195.742,82.547Zm-63.7,122.168V153.092l-26.173,28.983Zm79.36-170.8,6.627,7.344L52.943,224.078l-6.645-7.34Z" transform="translate(-39.969 -33.906)"/>
</svg>
