<svg xmlns="http://www.w3.org/2000/svg" width="184" height="160" viewBox="0 0 184 160">
  <title>Print</title>
  <path d="M205.42,172H196v24a11.943,11.943,0,0,1-11.62,11.99l-0.13.01H71.99A12,12,0,0,1,60,196V172H50.93c-4.75,0-9.24-1.6-12.02-4.33A9.073,9.073,0,0,1,36,161.14V102.86C36,96.77,42.59,92,51,92h9V60A12.01,12.01,0,0,1,72,48H184a12.01,12.01,0,0,1,12,12V92h9c8.41,0,15,4.77,15,10.86v58.28C220,167.17,213.73,171.83,205.42,172ZM68,196a3.947,3.947,0,0,0,1.22,2.87A4,4,0,0,0,72.13,200H184.18a3.983,3.983,0,0,0,3.82-4V156H68v40ZM188,60a4,4,0,0,0-4-4H72a4,4,0,0,0-4,4V92H188V60Zm24,42.86c0-.74-2.41-2.86-7-2.86H51c-4.59,0-7,2.12-7,2.86v58.28a1.5,1.5,0,0,0,.51.82c1,0.98,3.4,2.11,6.76,2.04H60V148H196v16h9.34c4.34-.09,6.66-2.16,6.66-2.86V102.86ZM108,140H92a12.014,12.014,0,0,1-12-12v-8a12.014,12.014,0,0,1,12-12h16a12.013,12.013,0,0,1,12,12v8A12.013,12.013,0,0,1,108,140Zm4-20a4,4,0,0,0-4-4H92a4,4,0,0,0-4,4v8a4,4,0,0,0,4,4h16a4,4,0,0,0,4-4v-8Zm64,52H80v-8h96v8Zm0,20H80v-8h96v8Z" transform="translate(-36 -48)"/>
</svg>
