<svg xmlns="http://www.w3.org/2000/svg" width="135.188" height="171" viewBox="0 0 135.188 171">
  <title>Profile</title>
  <path d="M128,117.994c-14.9,0-27.968-18.691-27.968-40,0-17.8,3.323-35.992,27.968-36h0.007c10.719,0,18.411,3.65,22.863,10.85,3.522,5.7,5.092,13.45,5.092,25.146C155.965,99.3,142.9,117.994,128,117.994ZM128.011,50H128c-14.751,0-19.979,7.328-19.979,28,0,18.021,10.739,32,19.978,32s19.972-13.978,19.972-32c0-9.984-1.238-16.636-3.9-20.934C142.205,54.029,138.5,50,128.011,50ZM183.93,213H72.069a11.559,11.559,0,0,1-8.81-4.1,12.026,12.026,0,0,1-2.693-9.728l7.309-45.809a11.991,11.991,0,0,1,3.776-6.979c5.2-4.677,16.76-11.665,29.879-15.96A85.47,85.47,0,0,1,128,125.993a85.475,85.475,0,0,1,26.466,4.427c13.123,4.3,24.686,11.285,29.878,15.958a11.992,11.992,0,0,1,3.78,6.978l7.312,45.825a12.021,12.021,0,0,1-2.7,9.717A11.558,11.558,0,0,1,183.93,213ZM128,133.993a77.518,77.518,0,0,0-23.991,4.033c-13.83,4.529-23.716,11.336-27.012,14.3a3.953,3.953,0,0,0-1.233,2.3l-7.31,45.812a4.033,4.033,0,0,0,.891,3.272A3.556,3.556,0,0,0,72.069,205H183.93a3.557,3.557,0,0,0,2.725-1.287,4.029,4.029,0,0,0,.892-3.261l-7.312-45.828a3.943,3.943,0,0,0-1.238-2.3c-3.29-2.962-13.177-9.769-27.011-14.3A77.5,77.5,0,0,0,128,133.993Z" transform="translate(-60.406 -42)"/>
</svg>
