<svg xmlns="http://www.w3.org/2000/svg" width="104.188" height="184" viewBox="0 0 104.188 184">
  <title>Question Mark</title>
  <path d="M128.367,224a25.2,25.2,0,1,1,25.179-25.2A25.218,25.218,0,0,1,128.367,224Zm0-42.375A17.179,17.179,0,1,0,145.539,198.8,17.2,17.2,0,0,0,128.367,181.623Zm-8.431-17.466a12.021,12.021,0,0,1-12.007-12.028V120.943a12.055,12.055,0,0,1,6.054-10.443c12.558-7.185,25.977-17.892,25.977-26.4,0-1.182-.94-2.252-2.792-3.18a21.516,21.516,0,0,0-9.22-1.832c-6.511,0-12.011,2.295-12.011,5.011v4.009a12.034,12.034,0,0,1-12.012,12.028H87.909A12.034,12.034,0,0,1,75.9,88.113V84.274c-0.164-2.112-.9-17.14,10.054-29.257,9-9.963,23.134-15.014,42-15.014C176.245,40,180,73.759,180,84.1c0,26.233-19.618,38.167-29.046,43.9l-1.322.807a3.957,3.957,0,0,0-1.879,3.4v19.66A12.073,12.073,0,0,1,135.936,163.9l-15.8.259C120.069,164.157,120,164.157,119.936,164.157Zm8.012-93.083c11.788,0,20.02,5.358,20.02,13.03,0,14.084-18.8,26.945-30.012,33.358a4.02,4.02,0,0,0-2.019,3.481v31.186a3.979,3.979,0,0,0,1.2,2.857,4.1,4.1,0,0,0,2.874,1.152l15.8-.258a4.026,4.026,0,0,0,3.939-4.009v-19.66a11.925,11.925,0,0,1,5.69-10.226l1.361-.831c8.806-5.356,25.2-15.328,25.2-37.05,0-10.849-4.292-36.083-44.043-36.083-16.5,0-28.636,4.164-36.059,12.376-9.2,10.176-8.017,23.178-8,23.308l0.02,0.4v4.009a4.011,4.011,0,0,0,4,4.009h16.016a4.011,4.011,0,0,0,4-4.009V84.1C107.929,76.432,116.161,71.074,127.948,71.074Z" transform="translate(-75.813 -40)"/>
</svg>
