<svg xmlns="http://www.w3.org/2000/svg" width="159.75" height="160" viewBox="0 0 159.75 160">
  <title>Search</title>
  <path d="M65.876,208a11.922,11.922,0,0,1-8.492-3.524l-5.66-5.667c-4.724-4.73-4.605-12.278.274-17.558l0.107-.112,43.5-43.558A60.564,60.564,0,0,1,105.5,65.611a60.08,60.08,0,0,1,84.912,85.02h0a60.345,60.345,0,0,1-72.062,9.805L74.367,204.474A11.923,11.923,0,0,1,65.876,208Zm-8.048-21.254c-1.917,2.113-2.1,4.734-.443,6.4l5.66,5.668a4.094,4.094,0,0,0,5.661,0l48.478-48.54,2.714,1.743a52.086,52.086,0,0,0,64.853-80.731,51.985,51.985,0,0,0-73.589,0,52.447,52.447,0,0,0-7.139,64.771l1.726,2.713ZM187.582,147.8h0Zm-69.847,7.587M100.647,138.2m47.31,8.519a38.6,38.6,0,1,1,27.274-11.294A38.427,38.427,0,0,1,147.957,146.722Zm0-69.192a30.59,30.59,0,1,0,21.613,8.95A30.452,30.452,0,0,0,147.957,77.53Z" transform="translate(-48.25 -48)"/>
</svg>
