<svg xmlns="http://www.w3.org/2000/svg" width="135.969" height="160" viewBox="0 0 135.969 160">
  <title>Sort</title>
  <path d="M128.005,56.917a0.273,0.273,0,0,1,.194.073l58.752,51.747c0.077,0.068.112,0.115,0.115,0.115h0a0.588,0.588,0,0,1-.131.382,0.644,0.644,0,0,1-.178.018l-117.511.609a1.511,1.511,0,0,1-.155-0.009s0,0,0,0a0.585,0.585,0,0,1-.156-0.373,0.642,0.642,0,0,1,.122-0.133l58.752-52.355a0.273,0.273,0,0,1,.2-0.075m0-8.915a9.191,9.191,0,0,0-6.128,2.334L63.125,102.692a9.209,9.209,0,0,0,6.122,16.084H69.3l117.5-.609a9.209,9.209,0,0,0,6.04-16.119L134.092,50.3a9.189,9.189,0,0,0-6.087-2.3h0Zm-58.758,89.22,0.007,8.915,117.5,0.608a1.558,1.558,0,0,1,.161.011h0a0.585,0.585,0,0,1,.152.373,0.663,0.663,0,0,1-.122.131L128.2,199.007a0.292,0.292,0,0,1-.39,0L69.057,146.65c-0.077-.068-0.112-0.116-0.116-0.116h0a0.586,0.586,0,0,1,.134-0.382,0.7,0.7,0,0,1,.172-0.016v-8.915m0,0a9.209,9.209,0,0,0-6.122,16.084l58.752,52.356a9.21,9.21,0,0,0,12.215.035l58.752-51.747a9.209,9.209,0,0,0-6.04-16.119l-117.5-.609H69.247Z" transform="translate(-60.031 -48)"/>
</svg>
