<svg xmlns="http://www.w3.org/2000/svg" width="189" height="202" viewBox="0 0 189 202">
  <title>Sound On</title>
  <path d="M40.986,95.527V158.67h38.26l47.72,42.281V53.252L79.249,95.527H40.986ZM184.574,26.015L173.353,46.04c20.419,9.976,35.9,43.049,35.9,81.06,0,37.684-15.217,70.514-35.379,80.8l10.976,20.12c26.375-15.264,45.16-54.682,45.16-100.915C230.011,80.7,211.1,41.159,184.574,26.015ZM162.752,64.962l-10.983,19.6c9.047,9.153,15.178,24.957,15.178,42.534,0,17.058-5.769,32.466-14.385,41.73l10.828,19.844c14.634-13.119,24.315-35.789,24.315-61.574C187.705,100.939,177.742,77.989,162.752,64.962Z" transform="translate(-41 -26)"/>
</svg>
