<svg xmlns="http://www.w3.org/2000/svg" width="160" height="88" viewBox="0 0 160 88">
  <title>Stats</title>
  <path d="M102.7,125.575l-1.368-1.3a5.61,5.61,0,0,1,1.256,1.142A1.008,1.008,0,0,1,102.7,125.575Zm22.232-23.788a1.416,1.416,0,0,1-.158-0.1,5.4,5.4,0,0,1-1.209-1.189Zm37.293,25.642-0.474-.552a5.368,5.368,0,0,1,.428.486A0.293,0.293,0,0,1,162.223,127.429Zm-69.032,3.885a5.244,5.244,0,0,0,1.172,1.666c0.065,0.066.13,0.122,0.2,0.178ZM194.977,85.872a13.11,13.11,0,0,0-11.861,18.508l-17.944,15.653a12.946,12.946,0,0,0-13.163-.983L138.6,104.7a13.017,13.017,0,1,0-21.135.093L105.228,117.88a12.906,12.906,0,0,0-7-2.05,13.118,13.118,0,0,0-11.6,19.06L68.781,148.352a12.872,12.872,0,0,0-7.758-2.565,13.107,13.107,0,1,0,13.023,13.107,12.9,12.9,0,0,0-.809-4.541l18.577-14.014a12.837,12.837,0,0,0,6.419,1.7,13.08,13.08,0,0,0,13.023-13.107,13.258,13.258,0,0,0-1.144-5.364L123.4,109.361a12.882,12.882,0,0,0,9.312-.038l13.851,14.829a13.032,13.032,0,1,0,23.265,1.732l18.168-15.849a12.9,12.9,0,0,0,6.986,2.05A13.107,13.107,0,0,0,194.977,85.872ZM61.023,164.511a5.625,5.625,0,1,1,5.581-5.617A5.6,5.6,0,0,1,61.023,164.511Zm37.209-29.958a5.485,5.485,0,0,1-3.674-1.4c-0.065-.056-0.13-0.112-0.2-0.178a5.244,5.244,0,0,1-1.172-1.666,5.461,5.461,0,0,1-.54-2.378,5.6,5.6,0,0,1,5.581-5.617,5.5,5.5,0,0,1,3.1.955,5.61,5.61,0,0,1,1.256,1.142,1.008,1.008,0,0,1,.112.159A5.618,5.618,0,0,1,98.233,134.553Zm33-32.869a5.6,5.6,0,0,1-6.288.113,0.01,0.01,0,0,1-.01-0.01,1.416,1.416,0,0,1-.158-0.1,5.4,5.4,0,0,1-1.209-1.189A5.572,5.572,0,1,1,131.228,101.684Zm26.539,34.742a5.618,5.618,0,0,1,0-11.235,5.524,5.524,0,0,1,3.973,1.676,0.009,0.009,0,0,1,.009.01,5.368,5.368,0,0,1,.428.486,0.293,0.293,0,0,1,.046.066A5.622,5.622,0,0,1,157.767,136.426Zm37.21-31.83a5.556,5.556,0,0,1-4.214-1.938l-0.01-.01a0.4,0.4,0,0,1-.074-0.093A5.57,5.57,0,1,1,194.977,104.6Z" transform="translate(-48 -84)"/>
</svg>
