<svg xmlns="http://www.w3.org/2000/svg" width="132.844" height="133" viewBox="0 0 132.844 133">
  <title>Tag</title>
  <path d="M191.315,141.232l-50.181,50.242a12,12,0,0,1-16.99,0l-58.624-58.7a11.954,11.954,0,0,1-3.519-8.5V62H124.2a11.927,11.927,0,0,1,8.5,3.523l58.624,58.7A12.052,12.052,0,0,1,191.315,141.232Zm-5.663-11.34L127.027,71.2a3.972,3.972,0,0,0-2.831-1.175H70.01v54.253a3.985,3.985,0,0,0,1.173,2.835l58.625,58.7a4.1,4.1,0,0,0,5.662,0l50.182-50.243A4.018,4.018,0,0,0,185.652,129.892Zm-65.558-9.725a18.525,18.525,0,1,1,0-26.2,18.441,18.441,0,0,1,0,26.2h0Zm-5.663-20.528a10.5,10.5,0,1,0,0,14.857A10.527,10.527,0,0,0,114.431,99.639Z" transform="translate(-62 -62)"/>
</svg>
