<svg xmlns="http://www.w3.org/2000/svg" width="136" height="137" viewBox="0 0 136 137">
  <title>Trash</title>
  <path d="M168,196H88c-6.617,0-12-6.068-12-13.526v-92.5H72c-7.4,0-12-4.213-12-11V77.439A12.008,12.008,0,0,1,72,65.452H94.587l8-6.453h50.826l8,6.453h22.579A12.012,12.012,0,0,1,196,77.439v1.539c0,6.782-4.6,11-12,11h-4v92.5C180,189.933,174.617,196,168,196ZM72,73.444a4,4,0,0,0-4,4v1.539c0,1.477,0,3,4,3H84V182.475c0,3,1.832,5.534,4,5.534h80c2.168,0,4-2.534,4-5.534V81.982h12c4,0,4-1.527,4-3V77.439a4.007,4.007,0,0,0-4.008-4h-25.4l-8-6.453H105.413l-8,6.453H72Zm60,93.445h-8V86.97h8v79.918Zm-24,0h-8V86.97h8v79.918Zm48,0h-8V86.97h8v79.918Z" transform="translate(-60 -59)"/>
</svg>
