<svg xmlns="http://www.w3.org/2000/svg" width="160" height="160" viewBox="0 0 160 160">
  <title>Unlock</title>
  <path d="M196,208H60a12.014,12.014,0,0,1-12-12V140a12.014,12.014,0,0,1,12-12h8V96c0-.48.686-48,60-48s60,47.52,60,48v12H156V96c-0.015-.609-0.7-16-28-16s-27.985,15.391-28,16.046V128h96a12.013,12.013,0,0,1,12,12v56A12.013,12.013,0,0,1,196,208ZM60,136a4,4,0,0,0-4,4v56a4,4,0,0,0,4,4H196a4,4,0,0,0,4-4V140a4,4,0,0,0-4-4H92V96c0-.24.412-24,36-24s36,23.76,36,24v4h16V96c-0.01-1.621-.844-40-52-40-21.767,0-37.118,6.779-45.625,20.147A41.126,41.126,0,0,0,76,96v40H60Z" transform="translate(-48 -48)"/>
</svg>
