<svg xmlns="http://www.w3.org/2000/svg" width="136" height="80" viewBox="0 0 136 80">
  <title>Web Link</title>
  <path d="M58,154V130a16.021,16.021,0,0,1,16-16h52a16.021,16.021,0,0,1,16,16h-8a8.011,8.011,0,0,0-8-8H74a8.011,8.011,0,0,0-8,8v24a8.011,8.011,0,0,0,8,8h52a8.011,8.011,0,0,0,8-8h8a16.02,16.02,0,0,1-16,16H74A16.02,16.02,0,0,1,58,154Zm52-24h8a8.011,8.011,0,0,0,8,8h52a8.011,8.011,0,0,0,8-8V106a8.01,8.01,0,0,0-8-8H126a8.01,8.01,0,0,0-8,8h-8a16.021,16.021,0,0,1,16-16h52a16.021,16.021,0,0,1,16,16v24a16.021,16.021,0,0,1-16,16H126A16.021,16.021,0,0,1,110,130Z" transform="translate(-58 -90)"/>
</svg>
