<svg xmlns="http://www.w3.org/2000/svg" width="182.813" height="159.907" viewBox="0 0 182.813 159.907">
  <title>Zoom In</title>
  <path d="M92.319,133.528m103.49-31.748a59.848,59.848,0,0,0-17.143-36.094,59.3,59.3,0,0,0-84.4,0,60.992,60.992,0,0,0-10.016,71.752l-42.63,43-0.122.134c-4.991,5.437-5.1,13.219-.266,18.108l5.589,5.627a12.24,12.24,0,0,0,17.42,0l43.118-43.484a58.926,58.926,0,0,0,28.973,7.558c1.406,0,2.823-.045,4.228-0.145a44.053,44.053,0,0,0,44.578,17.338A44.779,44.779,0,0,0,195.809,101.78Zm-86.744,49.669-3.01-1.943L57.991,198a3.452,3.452,0,0,1-4.9,0L47.5,192.366c-1.439-1.452-1.251-3.774.443-5.672l47.522-47.927-1.915-3.026a51.906,51.906,0,0,1,6.983-63.747,50.586,50.586,0,0,1,71.881,0,51.118,51.118,0,0,1,13.911,26.347,43.589,43.589,0,0,0-10.093-1.172q-1.41,0-2.822.1A38.445,38.445,0,0,0,109.231,80.78a39.163,39.163,0,0,0,0,54.95,38.137,38.137,0,0,0,23.009,11.108,44.5,44.5,0,0,0,3.32,12.616A49.94,49.94,0,0,1,109.065,151.449Zm27.967-30.389a44.8,44.8,0,0,0-4.892,16.78,29.361,29.361,0,0,1-16.645-8.429,30.138,30.138,0,0,1,0-42.312,29.586,29.586,0,0,1,49.083,11.644A44.226,44.226,0,0,0,137.032,121.06Zm46.338,55.765a35.587,35.587,0,0,1-42.21-30.043,35.594,35.594,0,0,1-.111-8.987,35.937,35.937,0,0,1,3.818-12.582,35.444,35.444,0,0,1,21.238-17.628,35.044,35.044,0,0,1,8.8-1.462c0.443-.012.886-0.023,1.328-0.023a34.961,34.961,0,0,1,19.788,6.107A35.832,35.832,0,0,1,183.37,176.825ZM200.745,137.3v8.931H180.658v20.152H171.8V146.235H152.05V137.3H171.8v-20.04h8.854V137.3h20.087Z" transform="translate(-37.688 -48.031)"/>
</svg>
