<svg xmlns="http://www.w3.org/2000/svg" width="184.875" height="159.907" viewBox="0 0 184.875 159.907">
  <title>Zoom Out</title>
  <path d="M110.83,152.672m85.546-50.892A60.4,60.4,0,0,0,93.689,65.686,60.479,60.479,0,0,0,83.56,137.438l-43.111,43-0.123.134c-5.048,5.437-5.159,13.219-.269,18.109l5.652,5.626a12.477,12.477,0,0,0,17.616,0l43.6-43.484a60.124,60.124,0,0,0,29.3,7.558c1.421,0,2.854-.045,4.275-0.145A44.712,44.712,0,1,0,196.376,101.78Zm-87.723,49.669-3.044-1.943L57,198a3.519,3.519,0,0,1-4.958,0l-5.652-5.638c-1.455-1.452-1.265-3.774.448-5.672L94.9,138.767l-1.936-3.026a51.362,51.362,0,0,1,79.754-63.747,50.938,50.938,0,0,1,14.068,26.347,44.56,44.56,0,0,0-10.207-1.172q-1.426,0-2.854.1a38.588,38.588,0,0,0-9.815-16.489,38.9,38.9,0,1,0-31.819,66.058,44.123,44.123,0,0,0,3.358,12.616A50.913,50.913,0,0,1,108.653,151.449Zm28.282-30.389a44.442,44.442,0,0,0-4.947,16.78,29.91,29.91,0,1,1,32.8-39.1A44.628,44.628,0,0,0,136.935,121.06ZM183.8,176.825a35.932,35.932,0,0,1-32.983-10.193,35.7,35.7,0,0,1-5.775-7.9,35.181,35.181,0,0,1-3.928-11.946,35.168,35.168,0,0,1-.112-8.987,35.774,35.774,0,0,1,34.236-31.672c0.448-.012.895-0.023,1.343-0.023A35.722,35.722,0,0,1,183.8,176.825Zm-7.219-59.561v49.123m24.79-29.083v8.931H152.123V137.3h49.244Z" transform="translate(-36.469 -48.031)"/>
</svg>
